/* XPM */
static char * default_xpm[] = {
"30 30 3 1",
" 	c None",
".	c #000000",
"+	c #FFFF00",
"..............................",
"..............................",
"..............................",
".........+....................",
".........++...................",
".........+++..................",
".........++++.................",
".........+++++................",
".........++++++...............",
".........+++++++..............",
".........++++++++.............",
".........+++++++++............",
".........++++++++++...........",
".........+++++++++++..........",
".........++++++++++++.........",
".........+++++++++++++........",
".........++++++++++++.........",
".........++++++++++...........",
".........+++++++++............",
".........+++++++++............",
".........++++..++++...........",
".........++.....+++...........",
"................++++..........",
".................+++..........",
".................++++.........",
"..................+++.........",
"..................+...........",
"..............................",
"..............................",
".............................."};
