/* XPM */
static char * landscape_xpm[] = {
"30 24 13 1",
" 	c None",
".	c #BFBFBF",
"+	c #000000",
"@	c #FFFFFF",
"#	c #7F7F7F",
"$	c #C7C7C7",
"%	c #555555",
"&	c #1D1D1D",
"*	c #727272",
"=	c #AAAAAA",
"-	c #393939",
";	c #8E8E8E",
">	c #E3E3E3",
".............................+",
".@@@@@@@@@@@@@@@@@@@@@@@@@@@#+",
".@@@@@@@@@@@@@@@@@@@@@@@@@@@#+",
".@@@@@@@@@@@@@@$@@@@@@@@@@@@#+",
".@@@@@@@@@@@@@$%@@@@@@@@@@@@#+",
".@@@@@@@@@@@@@%&$@@@@@@@@@@@#+",
".@@@@@@@@@@@@%++*@@@@@@@@@@@#+",
".@@@@@@@@@@@@%+++@@@@@@@@@@@#+",
".@@@@@@@@@@@=-&++$@@@@@@@@@@#+",
".@@@@@@@@@@@==%++%@@@@@@@@@@#+",
".@@@@@@@@@@@-=$++&;@@@@@@@@@#+",
".@@@@@@@@@@$%@@+++%@@@@@@@@@#+",
".@@@@@@@@@@%%@@*++&$@@@@@@@@#+",
".@@@@@@@@@@%@@@=+++=@@@@@@@@#+",
".@@@@@@@@@=+====-++*@@@@@@@@#+",
".@@@@@@@@@-*====-+++@@@@@@@@#+",
".@@@@@@@@@&$@@@@@+++%@@@@@@@#+",
".@@@@@@@@%%@@@@@@*++&$@@@@@@#+",
".@@@@@@@@+%@@@@@@=+++=@@@@@@#+",
".@@@@@@>-+-=@@@>=+++++$@@@@@#+",
".@@@@@@>====@@@>======$@@@@@#+",
".@@@@@@@@@@@@@@@@@@@@@@@@@@@#+",
".############################+",
"++++++++++++++++++++++++++++++"};
