/* XPM */
static char * no_center_on_pages_xpm[] = {
"64 64 6 1",
" 	c None",
".	c #BFBFBF",
"+	c #000000",
"@	c #7F7F7F",
"#	c #FFFFFF",
"$	c #008000",
"                                                                ",
"    .......................+         .......................+   ",
"    .+++++++++++++++++++++@+         .++++++++++++++++++###@+   ",
"    .+####################@+         .#################+###@+   ",
"    .+#$$$$$$$#########$$$@+         .$$$$#############+###@+   ",
"    .+#$#####$#########$##@+         .###$#############+###@+   ",
"    .+#$#$#$#$#########$#$@+         .#$#$#############+###@+   ",
"    .+#$#####$#########$##@+         .###$#############+###@+   ",
"    .+#$#$#$#$#$$$$$$$#$#$@+         .#$#$#####$$$$$$$#+###@+   ",
"    .+#$#####$#$#####$#$##@+         .###$#####$#####$#+###@+   ",
"    .+#$$$$$$$#$#$#$#$#$$$@+         .$$$$#####$#$#$#$#+###@+   ",
"    .+#########$#####$####@+         .#########$#####$#+###@+   ",
"    .+#$$$$$$$#$#$#$#$#$$$@+         .$$$$#####$#$#$#$#+###@+   ",
"    .+#$#####$#$#####$#$##@+         .###$#####$#####$#+###@+   ",
"    .+#$#$#$#$#$$$$$$$#$#$@+         .#$#$#####$$$$$$$#+###@+   ",
"    .+#$#####$#########$##@+         .###$#############+###@+   ",
"    .+#$#$#$#$#########$#$@+         .#$#$#$$$$$$$#####+###@+   ",
"    .+#$#####$#########$##@+         .###$#$#####$#####+###@+   ",
"    .+#$$$$$$$#########$$$@+         .$$$$#$#$#$#$#####+###@+   ",
"    .+####################@+         .#####$#####$#####+###@+   ",
"    .+#$$$$$$$#########$$$@+         .$$$$#$#$#$#$#####+###@+   ",
"    .+#$#####$#########$##@+         .###$#$#####$#####+###@+   ",
"    .+#$#$#$#$#########$#$@+         .#$#$#$$$$$$$#####+###@+   ",
"    .+#$#####$#########$##@+         .###$#############+###@+   ",
"    .+#$#$#$#$#$$$$$$$#$#$@+         .#$#$#####$$$$$$$#+###@+   ",
"    .+#$#####$#$#####$#$##@+         .###$#####$#####$#+###@+   ",
"    .+#$$$$$$$#$#$#$#$#$$$@+         .$$$$#####$#$#$#$#+###@+   ",
"    .+#########$#####$####@+         .#########$#####$#+###@+   ",
"    .+#$$$$$$$#$#$#$#$#$$$@+         .$$$$#####$#$#$#$#+###@+   ",
"    .@@@@@@@@@@@@@@@@@@@@@@+         .@@@@@@@@@@@@@@@@@@@@@@+   ",
"    ++++++++++++++++++++++++         ++++++++++++++++++++++++   ",
"                                                                ",
"                                                                ",
"                                                                ",
"    .......................+         .......................+   ",
"    .+#$#####$#$#####$#$##@+         .###$#####$#####$#+###@+   ",
"    .+#$#$#$#$#$$$$$$$#$#$@+         .#$#$#####$$$$$$$#+###@+   ",
"    .+#$#####$#########$##@+         .###$#############+###@+   ",
"    .+#$#$#$#$#########$#$@+         .#$#$#############+###@+   ",
"    .+#$#####$#########$##@+         .###$#############+###@+   ",
"    .+#$$$$$$$#########$$$@+         .$$$$#############+###@+   ",
"    .+####################@+         .#################+###@+   ",
"    .+++++++++++++++++++++@+         .++++++++++++++++++###@+   ",
"    .#####################@+         .#####################@+   ",
"    .#####################@+         .#####################@+   ",
"    .#####################@+         .#####################@+   ",
"    .#####################@+         .#####################@+   ",
"    .#####################@+         .#####################@+   ",
"    .#####################@+         .#####################@+   ",
"    .#####################@+         .#####################@+   ",
"    .#####################@+         .#####################@+   ",
"    .#####################@+         .#####################@+   ",
"    .#####################@+         .#####################@+   ",
"    .#####################@+         .#####################@+   ",
"    .#####################@+         .#####################@+   ",
"    .#####################@+         .#####################@+   ",
"    .#####################@+         .#####################@+   ",
"    .#####################@+         .#####################@+   ",
"    .#####################@+         .#####################@+   ",
"    .#####################@+         .#####################@+   ",
"    .#####################@+         .#####################@+   ",
"    .#####################@+         .#####################@+   ",
"    .@@@@@@@@@@@@@@@@@@@@@@+         .@@@@@@@@@@@@@@@@@@@@@@+   ",
"    ++++++++++++++++++++++++         ++++++++++++++++++++++++   "};
