<?xml version="1.0" encoding="UTF-8" standalone="no"?>
<!-- Created with Inkscape (http://www.inkscape.org/) -->
<svg
   xmlns:dc="http://purl.org/dc/elements/1.1/"
   xmlns:cc="http://web.resource.org/cc/"
   xmlns:rdf="http://www.w3.org/1999/02/22-rdf-syntax-ns#"
   xmlns:svg="http://www.w3.org/2000/svg"
   xmlns="http://www.w3.org/2000/svg"
   xmlns:sodipodi="http://inkscape.sourceforge.net/DTD/sodipodi-0.dtd"
   xmlns:inkscape="http://www.inkscape.org/namespaces/inkscape"
   width="30pt"
   height="30pt"
   id="svg2"
   sodipodi:version="0.32"
   inkscape:version="0.43"
   version="1.0"
   sodipodi:docbase="/home/nix/source/QCADesigner.HEAD/pixmaps"
   sodipodi:docname="no_show_potential.svg">
  <defs
     id="defs4" />
  <sodipodi:namedview
     id="base"
     pagecolor="#ffffff"
     bordercolor="#666666"
     borderopacity="1.0"
     inkscape:pageopacity="0.0"
     inkscape:pageshadow="2"
     inkscape:zoom="10.54902"
     inkscape:cx="20.5"
     inkscape:cy="15.5"
     inkscape:document-units="px"
     inkscape:current-layer="layer1"
     inkscape:window-width="1024"
     inkscape:window-height="718"
     inkscape:window-x="-1"
     inkscape:window-y="0" />
  <metadata
     id="metadata7">
    <rdf:RDF>
      <cc:Work
         rdf:about="">
        <dc:format>image/svg+xml</dc:format>
        <dc:type
           rdf:resource="http://purl.org/dc/dcmitype/StillImage" />
      </cc:Work>
    </rdf:RDF>
  </metadata>
  <g
     inkscape:label="Layer 1"
     inkscape:groupmode="layer"
     id="layer1">
    <g
       id="g4902"
       transform="translate(-0.737707,-0.989052)">
      <rect
         y="9.0260983"
         x="16.703749"
         height="21.425907"
         width="5.5679164"
         id="rect1307"
         style="opacity:1;fill:#ff8080;fill-opacity:0.50196078;fill-rule:evenodd;stroke:#ff0000;stroke-width:1;stroke-linecap:round;stroke-linejoin:round;stroke-miterlimit:4;stroke-dasharray:none;stroke-dashoffset:0;stroke-opacity:1" />
    </g>
    <path
       id="path2189"
       d="M 18.75,29.62224 C 19.67347,30.773764 20.755331,31.436392 21.911573,31.436392 C 25.297852,31.436391 28.046134,25.752889 28.046134,18.75 C 28.046134,11.747112 25.29785,6.0636084 21.911573,6.0636084 C 20.763221,6.0636084 19.688241,6.7172219 18.76893,7.8542512"
       style="opacity:1;fill:none;fill-opacity:0.50196078;fill-rule:evenodd;stroke:#c0c0c0;stroke-width:1;stroke-linecap:round;stroke-linejoin:miter;stroke-miterlimit:4;stroke-dasharray:none;stroke-dashoffset:0;stroke-opacity:1" />
    <path
       id="path2190"
       d="M 19.237359,30.611292 C 18.313889,31.762816 17.232028,32.425444 16.075786,32.425444 C 12.689507,32.425443 9.9412246,26.741941 9.9412246,19.739052 C 9.9412246,12.736164 12.689509,7.0526604 16.075786,7.0526604 C 17.224138,7.0526604 18.299118,7.7062739 19.218429,8.8433032"
       style="opacity:1;fill:none;fill-opacity:0.50196078;fill-rule:evenodd;stroke:#c0c0c0;stroke-width:1;stroke-linecap:round;stroke-linejoin:miter;stroke-miterlimit:4;stroke-dasharray:none;stroke-dashoffset:0;stroke-opacity:1"
       transform="translate(-0.737707,-0.989052)" />
    <path
       style="opacity:1;fill:none;fill-opacity:0.50196078;fill-rule:evenodd;stroke:#c0c0c0;stroke-width:1;stroke-linecap:round;stroke-linejoin:round;stroke-miterlimit:4;stroke-dasharray:none;stroke-dashoffset:0;stroke-opacity:1"
       d="M 18.499651,7.8555867 C 16.802167,3.4503928 14.101475,0.599797 11.061685,0.599797 C 5.9276893,0.599797 1.7609675,8.7310874 1.7609675,18.749999 C 1.7609676,28.768911 5.9276889,36.9002 11.061685,36.9002 C 14.101476,36.900201 16.802167,34.049605 18.499652,29.644411"
       id="path2192" />
    <path
       style="opacity:1;fill:none;fill-opacity:0.50196078;fill-rule:evenodd;stroke:#c0c0c0;stroke-width:1;stroke-linecap:round;stroke-linejoin:round;stroke-miterlimit:4;stroke-dasharray:none;stroke-dashoffset:0;stroke-opacity:1"
       d="M 18.750001,7.8555867 C 20.447485,3.4503928 23.148177,0.599797 26.187967,0.599797 C 31.321963,0.599797 35.488684,8.7310874 35.488684,18.749999 C 35.488684,28.768911 31.321964,36.9002 26.187967,36.9002 C 23.148176,36.900201 20.447485,34.049605 18.75,29.644411"
       id="path2194" />
  </g>
</svg>
