/* XPM */
static char * print_over_then_down_xpm[] = {
"64 64 9 1",
" 	c None",
".	c #BFBFBF",
"+	c #000000",
"@	c #FFFFFF",
"#	c #7F7F7F",
"$	c #008000",
"%	c #35A5F4",
"&	c #2A83BF",
"*	c #3091DB",
"                                                                ",
"    .......................+         .......................+   ",
"    .@@@@@@@@@@@@@@@@@@@@@#+         .@@@@@@@@@@@@@@@@@@@@@#+   ",
"    .@$$$$$$$@$$$$$$$@@@@@#+         .@$$$$$$$@@@@@@@@@@@@@#+   ",
"    .@$@@@@@$@$@@@@@$@@@@@#+         .@$@@@@@$@@@@@@@@@@@@@#+   ",
"    .@$@$@$@$@$@$@$@$@@@@@#+         .@$@$@$@$@@@@@@@@@@@@@#+   ",
"    .@$@@@@@$@$@@@@@$@@@@@#+         .@$@@@@@$@$$$$$$$@@@@@#+   ",
"    .@$@$@$@$@$@$@$@$@@@@@#+         .@$@$@$@$@$@@@@@$@@@@@#+   ",
"    .@$@@@@@$@$@@@@@$@@@@@#+         .@$@@@@@$@$@$@$@$@@@@@#+   ",
"    .@$$$$$$$@$$$$$$$@@@@@#+         .@$$$$$$$@$@@@@@$@@@@@#+   ",
"    .@@@@@@@@@@@@@@@@@@@@@#+         .@@@@@@@@@$@$@$@$@@@@@#+   ",
"    .@$$$$$$$@@@@@@@@@@@@@#+         .@@@@@@%@@$@@@@@$@@@@@#+   ",
"    .@$@@@@@$@@@@@@@@@@@@@#+         .@@@@@@%&@$$$$$$$@@@@@#+   ",
"    .@$@$@$@$@@%%%%%%%%%%%%%%%%%%%%%%%%%%%%%%*&@@@@@@@@@@@@#+   ",
"    .@$@@@@@$@@%*******************************&$$$$$$@@@@@#+   ",
"    .@$@$@$@$@@%********************************&@@@@$@@@@@#+   ",
"    .@$@@@@@$@@%*******************************&@$@$@$@@@@@#+   ",
"    .@$$$$$$$@@&&&&&&&&&&&&&&&&&&&&&&&&&&&&&&*&$@@@@@$@@@@@#+   ",
"    .@@@@@@@@@@@@@@@@@@@@@#+         .@@@@@@%&@$@$@$@$@@@@@#+   ",
"    .@@@@@@@@@@@@@@@@@@@@@#+         .@@@%@@%@@$@@@@@$@@@@@#+   ",
"    .@@@@@@@@@@@@@@@@@@@@@#+         .@@%*&@@@@$$$$$$$@@@@@#+   ",
"    .@@@@@@@@@@@@@@@@@@@@@#+         .@%***&@@@@@@@@@@@@@@@#+   ",
"    .@@@@@@@@@@@@@@@@@@@@@#+         .%*****&@@@@@@@@@@@@@@#+   ",
"    .@@@@@@@@@@@@@@@@@@@@@#+         %*****&@@@@@@@@@@@@@@@#+   ",
"    .@@@@@@@@@@@@@@@@@@@@@#+        %*****&@@@@@@@@@@@@@@@@#+   ",
"    .@@@@@@@@@@@@@@@@@@@@@#+       %*****&@@@@@@@@@@@@@@@@@#+   ",
"    .@@@@@@@@@@@@@@@@@@@@@#+      %*****&@@@@@@@@@@@@@@@@@@#+   ",
"    .@@@@@@@@@@@@@@@@@@@@@#+     %*****&@@@@@@@@@@@@@@@@@@@#+   ",
"    .@@@@@@@@@@@@@@@@@@@@@#+    %*****&@@@@@@@@@@@@@@@@@@@@#+   ",
"    .######################+   %*****&######################+   ",
"    ++++++++++++++++++++++++  %*****&++++++++++++++++++++++++   ",
"                             %*****&                            ",
"                            %*****&                             ",
"                           %*****&                              ",
"    ......................%*****&    .......................+   ",
"    .@@@@@@@@@@@@@@@@@@@@%*****&     .@@@@@@@@@@@@@@@@@@@@@#+   ",
"    .@$$$$$$$@@@@@@@@@@@%*****&      .@@@@@$$$$$$$@$$$$$$$@#+   ",
"    .@$@@@@@$@@@@@@@@@@%*****&       .@@@@@$@@@@@$@$@@@@@$@#+   ",
"    .@$@$@$@$@@@@@@%@@%*****&        .@@@@@$@$@$@$@$@$@$@$@#+   ",
"    .@$@@@@@$@$$$$$%%%*****&         .@@@@@$@@@@@$@$@@@@@$@#+   ",
"    .@$@$@$@$@$@@@@%******&+         .@@@@@$@$@$@$@$@$@$@$@#+   ",
"    .@$@@@@@$@$@$@$%*****&#+         .@@@@@$@@@@@$@$@@@@@$@#+   ",
"    .@$$$$$$$@$@@@@%****&@#+         .@@@@@$$$$$$$@$$$$$$$@#+   ",
"    .@@@@@@@@@$@$@$%****&@#+         .@@@@@@@@@@@@@@@@@@@@@#+   ",
"    .@@@@@@@@@$@@@@&&&&&&&#+         .@@$$$$%$$@@@@@@@@@@@@#+   ",
"    .@@@@@@@@@$$$$$$$@@@@@#+         .@@$@@@%&$@@@@@@@@@@@@#+   ",
"    .@@@@@@@@@@%%%%%%%%%%%%%%%%%%%%%%%%%%%%%%*&@@@@@@@@@@@@#+   ",
"    .@@@@@@@@@$%*******************************&@@@@@@@@@@@#+   ",
"    .@@@@@@@@@$%********************************&@@@@@@@@@@#+   ",
"    .@@@@@@@@@$%*******************************&@@@@@@@@@@@#+   ",
"    .@$$$$$$$@$&&&&&&&&&&&&&&&&&&&&&&&&&&&&&&*&@@@@@@@@@@@@#+   ",
"    .@$@@@@@$@$@$@$@$@@@@@#+         .@@@@@@%&@@@@@@@@@@@@@#+   ",
"    .@$@$@$@$@$@@@@@$@@@@@#+         .@@$$$$%$$@@@@@@@@@@@@#+   ",
"    .@$@@@@@$@$$$$$$$@@@@@#+         .@@$@@@@@$@@@@@@@@@@@@#+   ",
"    .@$@$@$@$@@@@@@@@@@@@@#+         .@@$@$@$@$@@@@@@@@@@@@#+   ",
"    .@$@@@@@$@@@@@@@@@@@@@#+         .@@$@@@@@$@@@@@@@@@@@@#+   ",
"    .@$$$$$$$@@@@@@@@@@@@@#+         .@@$@$@$@$@@@@@@@@@@@@#+   ",
"    .@@@@@@@@@@@@@@@@@@@@@#+         .@@$@@@@@$@@@@@@@@@@@@#+   ",
"    .@@@@@@@@@@@@@@@@@@@@@#+         .@@$$$$$$$@@@@@@@@@@@@#+   ",
"    .@@@@@@@@@@@@@@@@@@@@@#+         .@@@@@@@@@@@@@@@@@@@@@#+   ",
"    .@@@@@@@@@@@@@@@@@@@@@#+         .@@@@@@@@@@@@@@@@@@@@@#+   ",
"    .@@@@@@@@@@@@@@@@@@@@@#+         .@@@@@@@@@@@@@@@@@@@@@#+   ",
"    .######################+         .######################+   ",
"    ++++++++++++++++++++++++         ++++++++++++++++++++++++   "};
