/* XPM */
static char *magick[] = {
/* columns rows colors chars-per-pixel */
"30 30 10 1",
"  c black",
". c #2f2f00",
"X c #3f3f00",
"o c #4f4f00",
"O c #5f5f00",
"+ c #6f6f00",
"@ c #7f7f00",
"# c #8f8f00",
"$ c #9f9f00",
"% c yellow",
/* pixels */
"                              ",
"                              ",
"                              ",
"                              ",
"   %      %       %      %    ",
"   %      %       %      %    ",
"   %      %       %      %    ",
"   %      %       %     $%#   ",
"   %      %       %     %%%   ",
"  O%o     %       %     %%%   ",
"  %%%     %       %     %%%   ",
"  %%%     %       %     %%%   ",
"  %%%    o%@o     %     .%X   ",
"  %%%    %%%%     %      %    ",
"  +%@    %%%%   .@%o     %    ",
"   %     %%%%   %%%%     %    ",
"   %     %%%%   %%%%     %    ",
"   %     +%@o   %%%%     %    ",
"   %      %     %%%%     %    ",
"   %      %     +@%+     %    ",
"   %      %       %      %    ",
"   %      %       %      %    ",
"   %      %       %      %    ",
"   %      %       %      %    ",
"   %      %       %      %    ",
"   %      %       %      %    ",
"                              ",
"                              ",
"                              ",
"                              "
};
