/* XPM */
static char *magick[] = {
/* columns rows colors chars-per-pixel */
"30 30 17 1",
"  c black",
". c #0f0f00",
"X c #1f1f00",
"o c #2f2f00",
"O c #3f3f00",
"+ c #4f4f00",
"@ c #5f5f00",
"# c #6f6f00",
"$ c #7f7f00",
"% c #8f8f00",
"& c #9f9f00",
"* c #afaf00",
"= c #bfbf00",
"- c #cfcf00",
"; c #dfdf00",
": c #efef00",
"> c yellow",
/* pixels */
"                              ",
"                              ",
"                              ",
"                              ",
"                              ",
"                              ",
"                              ",
"                              ",
"                              ",
"                              ",
" ->>>>>>>-           ;>>>>>>- ",
" >   +   >           >  XX  > ",
" >       >      ..   >      > ",
" >==  o-*>      @:#  >=%  $;> ",
" >>>  #>>>$>>>>>>>>* >>-  *>> ",
" >$$  X$#>      #:&X >$+  O$> ",
" >       >           >      > ",
" >   +   >           >  XX  > ",
" ;>>>>>>>-           ;>>>>>>> ",
"                              ",
"                              ",
"                              ",
"                              ",
"                              ",
"                              ",
"                              ",
"                              ",
"                              ",
"                              ",
"                              "
};
