/* XPM */
static char * q_cell_pan_xpm[] = {
"30 30 3 1",
" 	c None",
".	c #000000",
"+	c #FFFF00",
"..............+...............",
".............+++..............",
"............+++++.............",
"...........+++++++............",
".............+++..............",
".............+++..............",
".............+++..............",
".............+++..............",
".............+++..............",
".............+++..............",
".............+++..............",
"...+.........+++.........+....",
"..++.........+++.........++...",
".+++++++++++++++++++++++++++..",
"+++++++++++++++++++++++++++++.",
".+++++++++++++++++++++++++++..",
"..++.........+++.........++...",
"...+.........+++.........+....",
".............+++..............",
".............+++..............",
".............+++..............",
".............+++..............",
".............+++..............",
".............+++..............",
".............+++..............",
"...........+++++++............",
"............+++++.............",
".............+++..............",
"..............+...............",
".............................."};
