<?xml version="1.0" encoding="UTF-8" standalone="no"?>
<!-- Created with Inkscape (http://www.inkscape.org/) -->
<svg
   xmlns:dc="http://purl.org/dc/elements/1.1/"
   xmlns:cc="http://web.resource.org/cc/"
   xmlns:rdf="http://www.w3.org/1999/02/22-rdf-syntax-ns#"
   xmlns:svg="http://www.w3.org/2000/svg"
   xmlns="http://www.w3.org/2000/svg"
   xmlns:sodipodi="http://inkscape.sourceforge.net/DTD/sodipodi-0.dtd"
   xmlns:inkscape="http://www.inkscape.org/namespaces/inkscape"
   width="431.457"
   height="64.223999"
   id="svg1692"
   sodipodi:version="0.32"
   inkscape:version="0.43"
   version="1.0"
   sodipodi:docbase="/home/nix/source/QCADesigner.HEAD/pixmaps"
   sodipodi:docname="QCADesigner-logo.svg">
  <defs
     id="defs1694" />
  <sodipodi:namedview
     id="base"
     pagecolor="#ffffff"
     bordercolor="#666666"
     borderopacity="1.0"
     inkscape:pageopacity="0.0"
     inkscape:pageshadow="2"
     inkscape:zoom="0.35"
     inkscape:cx="375"
     inkscape:cy="520"
     inkscape:document-units="px"
     inkscape:current-layer="layer1"
     inkscape:window-width="814"
     inkscape:window-height="583"
     inkscape:window-x="0"
     inkscape:window-y="24" />
  <metadata
     id="metadata1697">
    <rdf:RDF>
      <cc:Work
         rdf:about="">
        <dc:format>image/svg+xml</dc:format>
        <dc:type
           rdf:resource="http://purl.org/dc/dcmitype/StillImage" />
      </cc:Work>
    </rdf:RDF>
  </metadata>
  <g
     inkscape:label="Layer 1"
     inkscape:groupmode="layer"
     id="layer1">
    <g
       transform="matrix(0.866761,0,0,0.866761,0,-0.522712)"
       id="QCADesigner Logo">
      <g
         style="font-size:12px"
         id="QCADesigner"
         knockout="Off">
        <path
           style="fill:#102242"
           id="Q"
           d="M 41.581,64.988 L 36.426,58.205 C 33.713,59.63 30.186,60.444 26.116,60.444 C 10.989,60.444 0,49.184 0,35.075 C 0,28.224 2.646,21.916 7.597,17.1 C 12.481,12.352 18.993,9.706 25.911,9.706 C 32.829,9.706 39.274,12.284 44.225,17.1 C 49.109,21.848 51.822,28.224 51.822,35.075 C 51.822,42.333 49.109,48.709 44.021,53.254 L 52.839,64.989 L 41.581,64.989 L 41.581,64.988 z M 36.425,43.282 C 37.646,41.451 38.596,38.941 38.596,35.482 C 38.596,26.935 33.169,20.83 25.911,20.83 C 18.721,20.83 13.226,27.003 13.226,35.142 C 13.226,43.281 18.449,49.522 25.978,49.522 C 27.131,49.522 28.148,49.251 29.302,48.776 L 22.451,39.958 L 33.914,39.958 L 36.425,43.282 z "
           knockout="Off" />
        <path
           style="fill:#102242"
           id="C"
           d="M 95.233,27.139 C 91.706,23.205 88.314,21.306 84.041,21.306 C 76.376,21.306 71.289,27.139 71.289,35.347 C 71.289,42.808 76.309,48.846 84.041,48.846 C 88.314,48.846 91.706,46.947 95.233,43.013 L 95.233,57.461 C 91.027,59.496 87.025,60.514 82.684,60.514 C 68.372,60.514 58.061,49.729 58.061,35.077 C 58.061,20.426 68.371,9.64 82.684,9.64 C 87.025,9.64 91.027,10.658 95.233,12.692 L 95.233,27.139 z "
           knockout="Off" />
        <path
           style="fill:#102242"
           id="A"
           d="M 113.75,10.792 L 130.301,10.792 L 147.055,59.291 L 133.896,59.291 L 131.454,50.609 L 112.665,50.609 L 110.155,59.291 L 96.996,59.291 L 113.75,10.792 z M 128.673,41.18 L 123.721,25.172 C 123.517,24.426 122.975,22.255 122.093,18.66 C 121.211,22.255 120.6,24.426 120.397,25.172 L 115.513,41.18 L 128.673,41.18 z "
           knockout="Off" />
        <path
           style="fill:#102242"
           id="D"
           d="M 155.193,10.792 L 165.504,10.792 C 172.898,10.792 178.867,10.995 184.429,15.201 C 189.584,19.136 192.501,25.512 192.501,33.38 C 192.501,40.435 190.127,46.811 186.193,51.356 C 183.344,54.612 179.749,56.918 175.476,58.139 C 171.881,59.157 168.421,59.292 164.962,59.292 L 148.818,59.292 L 155.193,10.792 z M 160.077,52.372 C 167.538,52.372 173.101,52.304 177.577,49.048 C 181.986,45.86 184.632,40.23 184.632,33.718 C 184.632,28.156 182.597,23.611 178.866,20.762 C 174.999,17.777 170.658,17.709 165.096,17.709 L 161.84,17.709 L 157.296,52.371 L 160.077,52.371 L 160.077,52.372 z "
           knockout="Off" />
        <path
           style="fill:#102242"
           id="e_0"
           d="M 226.075,53.661 C 222.413,58.409 218.343,60.579 212.713,60.579 C 203.42,60.579 197.112,54.475 197.112,45.249 C 197.112,34.396 204.506,26.799 214.68,26.799 C 223.091,26.799 228.654,32.429 228.654,41.383 C 228.654,42.129 228.586,43.282 228.45,44.91 L 204.506,44.91 C 204.506,50.743 207.694,54.203 212.374,54.203 C 215.698,54.203 218.818,52.575 220.92,49.659 L 226.075,53.661 z M 221.327,39.823 C 221.191,35.55 218.546,32.972 214.341,32.972 C 209.525,32.972 205.998,35.618 205.116,39.823 L 221.327,39.823 z "
           knockout="Off" />
        <path
           style="fill:#102242"
           id="s"
           d="M 243.643,55.085 C 246.696,55.085 248.595,53.593 248.595,51.422 C 248.595,48.981 246.627,47.963 243.304,46.131 C 238.352,43.35 235.503,41.315 235.503,36.702 C 235.503,30.869 240.184,26.731 247.306,26.731 C 251.579,26.731 255.174,28.292 258.363,31.547 L 253.954,36.091 C 251.919,33.581 249.342,32.293 246.56,32.293 C 244.253,32.293 242.491,33.853 242.491,35.685 C 242.491,38.602 245.271,39.144 249.137,41.315 C 253.343,43.621 255.581,45.792 255.581,50.269 C 255.581,56.441 251.036,60.579 243.507,60.579 C 238.692,60.579 234.418,58.612 231.23,54.813 L 235.368,50.065 C 237.741,53.389 240.658,55.085 243.643,55.085 z "
           knockout="Off" />
        <path
           style="fill:#102242"
           id="i"
           d="M 265.756,27.885 L 272.878,27.885 L 268.74,59.291 L 261.618,59.291 L 265.756,27.885 z M 270.571,12.69 C 272.945,12.69 274.777,14.522 274.777,16.896 C 274.777,19.338 272.945,21.169 270.571,21.169 C 268.13,21.169 266.298,19.337 266.298,16.896 C 266.298,14.522 268.197,12.69 270.571,12.69 z "
           knockout="Off" />
        <path
           style="fill:#102242"
           id="g"
           d="M 292.005,74.078 C 283.391,74.078 277.897,69.601 277.015,62.343 L 283.527,61.461 C 284.069,65.938 286.783,67.905 292.006,67.905 C 298.857,67.905 300.824,64.378 301.435,55.288 C 298.722,58.137 295.534,59.561 291.667,59.561 C 283.663,59.561 278.779,54.27 278.779,44.977 C 278.779,33.989 285.019,26.798 293.633,26.798 C 297.771,26.798 301.365,28.494 304.621,31.953 L 305.232,27.883 L 312.218,27.883 L 308.08,58.882 C 306.725,69.126 301.637,74.078 292.005,74.078 z M 294.04,53.389 C 299.534,53.389 303.333,48.845 303.333,41.383 C 303.333,35.753 300.077,32.226 295.058,32.226 C 289.767,32.226 286.172,36.77 286.172,44.096 C 286.172,49.998 289.224,53.389 294.04,53.389 z "
           knockout="Off" />
        <path
           style="fill:#102242"
           id="n"
           d="M 342.674,41.248 C 342.81,40.298 342.81,39.416 342.81,38.602 C 342.81,34.464 340.775,32.226 336.976,32.226 C 331.007,32.226 327.751,36.092 326.734,43.893 L 324.767,59.29 L 317.644,59.29 L 321.782,27.884 L 328.634,27.884 L 328.091,31.682 C 331.754,28.358 335.553,26.798 339.894,26.798 C 346.337,26.798 350.136,30.325 350.136,36.43 C 350.136,38.126 349.933,40.228 349.594,42.738 L 347.423,59.289 L 340.3,59.289 L 342.674,41.248 z "
           knockout="Off" />
        <path
           style="fill:#102242"
           id="e_1"
           d="M 385.338,53.661 C 381.675,58.409 377.606,60.579 371.976,60.579 C 362.683,60.579 356.374,54.475 356.374,45.249 C 356.374,34.396 363.768,26.799 373.942,26.799 C 382.353,26.799 387.916,32.429 387.916,41.383 C 387.916,42.129 387.848,43.282 387.712,44.91 L 363.768,44.91 C 363.768,50.743 366.956,54.203 371.636,54.203 C 374.96,54.203 378.08,52.575 380.183,49.659 L 385.338,53.661 z M 380.59,39.823 C 380.454,35.55 377.809,32.972 373.604,32.972 C 368.788,32.972 365.26,35.618 364.378,39.823 L 380.59,39.823 z "
           knockout="Off" />
        <path
           style="fill:#102242"
           id="r"
           d="M 411.248,33.108 C 406.094,33.108 403.312,36.906 402.295,44.571 L 400.328,59.29 L 393.205,59.29 L 397.343,27.884 L 404.195,27.884 L 403.652,31.954 C 406.162,28.495 409.079,26.799 412.47,26.799 C 414.03,26.799 415.522,27.206 416.947,28.02 L 414.64,34.192 C 413.623,33.447 412.537,33.108 411.248,33.108 z "
           knockout="Off" />
      </g>
      <g
         id="QCADCell">
        <polyline
           style="font-size:12px;fill:#102242;stroke:#102242"
           id="Top Dot"
           points="467.568,14.959 467.39,14.716 466.942,14.286       466.691,14.035 466.454,13.891 465.924,13.53 465.646,13.42 465.336,13.27 465.058,13.16 464.778,13.048 464.486,13.011       464.168,12.934 463.834,12.929 463.545,12.891 462.943,12.957 462.598,13.023 462.297,13.057 461.979,13.165 461.739,13.281       461.422,13.387 461.138,13.534 460.884,13.721 460.644,13.841 460.418,14.066 460.164,14.255 459.94,14.484 459.747,14.754       459.564,14.952 459.371,15.222 458.883,16.339 458.795,16.657 458.745,16.946 458.726,17.273 458.676,17.561 458.659,17.893       458.682,18.19 458.736,18.529 458.762,18.828 458.949,19.441 459.019,19.71 459.184,20.024 459.466,20.576 459.827,21.065       460.271,21.491 460.525,21.747 460.763,21.889 461.295,22.253 461.571,22.361 461.878,22.509 462.156,22.621 462.477,22.698       462.767,22.737 463.09,22.816 463.379,22.854 463.707,22.862 464.919,22.722 465.234,22.616 465.477,22.5 465.789,22.393       466.073,22.244 466.327,22.055 466.611,21.912 466.793,21.709 467.047,21.523 467.273,21.295 467.47,21.026 467.648,20.829       467.845,20.557 467.964,20.28 468.129,19.97 468.369,19.413 468.419,19.126 468.51,18.805 468.529,18.476 468.576,18.185       468.529,17.589 468.479,17.252 468.457,16.955 468.265,16.339 468.198,16.072 468.027,15.753 467.751,15.205 467.568,14.959 "
           knockout="Off" />
        <polyline
           style="font-size:12px;fill:#102242;stroke:#102242"
           id="Bottom Dot"
           points="461.982,54.472 461.756,54.26 461.574,54.014       461.323,53.763 461.1,53.545 460.865,53.407 460.332,53.044 460.025,52.894 459.471,52.671 458.825,52.516 458.538,52.478       458.248,52.439 457.914,52.433 456.705,52.571 456.391,52.676 456.076,52.785 455.836,52.9 455.549,53.047 455.295,53.236       455.011,53.381 454.787,53.611 454.574,53.769 454.352,53.998 454.13,54.225 453.932,54.494 453.782,54.734 453.661,55.013       453.495,55.325 453.256,55.878 453.203,56.171 453.111,56.49 453.062,56.778 453.046,57.108 453.07,57.406 453.051,57.733       453.076,58.034 453.173,58.339 453.225,58.678 453.318,58.987 453.43,59.219 453.57,59.498 453.732,59.814 453.876,60.09       454.238,60.579 455.129,61.432 455.395,61.612 455.706,61.764 455.938,61.903 456.247,62.057 456.567,62.134 456.844,62.243       457.136,62.282 457.456,62.362 457.787,62.369 458.083,62.402 458.682,62.335 459.026,62.269 459.327,62.234 459.601,62.159       459.891,62.011 460.199,61.907 460.486,61.76 460.699,61.604 460.98,61.455 461.207,61.228 461.461,61.04 461.685,60.809       461.836,60.57 462.06,60.341 462.253,60.071 462.375,59.793 462.741,58.957 462.833,58.637 462.88,58.35 462.898,58.02       462.945,57.73 462.968,57.399 462.945,57.104 462.888,56.764 462.865,56.468 462.579,55.545 462.3,54.993 462.118,54.75       461.982,54.472 "
           knockout="Off" />
        <path
           sodipodi:nodetypes="ccccc"
           id="Cell Outline"
           d="M 455.767,73.195 L 425.346,32.066 L 465.86,2.097998 L 496.281,43.228 L 455.767,73.195 z "
           style="font-size:12px;fill:none;stroke:#102242;stroke-width:3;stroke-linecap:butt;stroke-linejoin:miter" />
        <polyline
           style="font-size:12px;fill:#102242;stroke:#102242"
           id="Left Dot"
           points="443.133,33.405 443.056,33.299 442.861,33.112       442.751,33.003 442.647,32.94 442.417,32.783 442.295,32.734 442.161,32.669 442.04,32.622 441.919,32.573 441.792,32.557       441.653,32.523 441.508,32.521 441.382,32.504 441.119,32.533 440.969,32.562 440.838,32.577 440.7,32.624 440.596,32.674       440.457,32.721 440.334,32.785 440.224,32.865 440.119,32.918 440.02,33.016 439.909,33.099 439.812,33.198 439.729,33.315       439.648,33.401 439.564,33.52 439.352,34.005 439.313,34.144 439.293,34.27 439.284,34.412 439.262,34.537 439.255,34.682       439.265,34.812 439.288,34.959 439.299,35.089 439.381,35.355 439.411,35.473 439.482,35.609 439.605,35.85 439.763,36.063       439.956,36.249 440.066,36.359 440.17,36.422 440.402,36.58 440.522,36.627 440.656,36.691 440.777,36.74 440.917,36.773       441.042,36.791 441.184,36.825 441.311,36.841 441.452,36.845 441.979,36.784 442.117,36.738 442.223,36.688 442.359,36.641       442.481,36.576 442.592,36.494 442.717,36.432 442.796,36.343 442.906,36.262 443.005,36.163 443.09,36.046 443.168,35.96       443.253,35.841 443.306,35.721 443.377,35.586 443.482,35.344 443.503,35.218 443.543,35.079 443.551,34.936 443.572,34.809       443.551,34.55 443.53,34.403 443.521,34.274 443.437,34.005 443.407,33.89 443.333,33.751 443.213,33.512 443.133,33.405 "
           knockout="Off" />
        <polyline
           style="font-size:12px;fill:#102242;stroke:#102242"
           id="Right Dot"
           points="482.23,40.096 482.152,39.99 481.958,39.803       481.848,39.694 481.744,39.631 481.514,39.474 481.393,39.425 481.259,39.36 481.137,39.313 481.016,39.264 480.889,39.248       480.751,39.214 480.604,39.211 480.479,39.195 480.217,39.224 480.066,39.253 479.936,39.268 479.797,39.315 479.692,39.365       479.555,39.412 479.432,39.476 479.321,39.557 479.216,39.609 479.117,39.707 479.006,39.79 478.91,39.889 478.825,40.006       478.745,40.093 478.661,40.21 478.449,40.696 478.41,40.835 478.39,40.96 478.381,41.103 478.359,41.229 478.353,41.373       478.361,41.502 478.386,41.65 478.396,41.78 478.478,42.047 478.508,42.164 478.58,42.301 478.703,42.541 478.86,42.754       479.053,42.939 479.164,43.051 479.268,43.113 479.499,43.271 479.619,43.318 479.753,43.382 479.874,43.431 480.014,43.465       480.14,43.482 480.28,43.516 480.407,43.532 480.549,43.536 481.076,43.475 481.215,43.429 481.319,43.378 481.456,43.332       481.578,43.267 481.689,43.185 481.813,43.123 481.894,43.034 482.004,42.953 482.102,42.854 482.188,42.737 482.265,42.651       482.35,42.532 482.402,42.412 482.475,42.277 482.579,42.035 482.6,41.909 482.64,41.77 482.648,41.626 482.669,41.5       482.648,41.241 482.627,41.094 482.618,40.965 482.533,40.696 482.505,40.581 482.43,40.442 482.311,40.203 482.23,40.096 "
           knockout="Off" />
      </g>
    </g>
  </g>
</svg>
