<?xml version="1.0" encoding="UTF-8" standalone="no"?>
<!-- Created with Sodipodi ("http://www.sodipodi.com/") -->
<svg
   xmlns:dc="http://purl.org/dc/elements/1.1/"
   xmlns:cc="http://web.resource.org/cc/"
   xmlns:rdf="http://www.w3.org/1999/02/22-rdf-syntax-ns#"
   xmlns:svg="http://www.w3.org/2000/svg"
   xmlns="http://www.w3.org/2000/svg"
   xmlns:sodipodi="http://inkscape.sourceforge.net/DTD/sodipodi-0.dtd"
   xmlns:inkscape="http://www.inkscape.org/namespaces/inkscape"
   id="svg602"
   sodipodi:version="0.32"
   width="30pt"
   height="30pt"
   xml:space="preserve"
   sodipodi:docname="rect_clocking_zone.svg"
   inkscape:version="0.42.2"
   sodipodi:docbase="/home/nix/source/QCADesigner.HEAD/pixmaps"><metadata
     id="metadata23"><rdf:RDF><cc:Work
         rdf:about=""><dc:format>image/svg+xml</dc:format><dc:type
           rdf:resource="http://purl.org/dc/dcmitype/StillImage" /></cc:Work></rdf:RDF></metadata><defs
     id="defs604" /><sodipodi:namedview
     id="base"
     inkscape:zoom="9.8933333"
     inkscape:cx="18.750000"
     inkscape:cy="14.706873"
     inkscape:window-width="1024"
     inkscape:window-height="720"
     inkscape:window-x="0"
     inkscape:window-y="0"
     inkscape:current-layer="svg602" /><g
     id="g2784"
     transform="translate(-3.116465,3.290473)"
     style="fill:#ffff00;fill-opacity:0.24705882"><path
       sodipodi:nodetypes="cccccc"
       id="path2782"
       d="M 4.8863611,23.958809 L 38.846569,23.958809 L 38.846569,6.9602442 L 4.8863611,6.9602442 L 4.8863611,6.9602442 L 4.8863611,23.958809 z "
       style="font-size:12.000000px;fill:#ffff00;fill-opacity:0.24705882;fill-rule:evenodd;stroke:#000000;stroke-linecap:round;stroke-linejoin:round;stroke-opacity:1.0000000" /><path
       transform="translate(-1.335223,-6.384459)"
       sodipodi:ry="0.75000000"
       sodipodi:rx="0.75000000"
       sodipodi:cy="19.094707"
       sodipodi:cx="11.971584"
       d="M 12.721584 19.094707 A 0.75000000 0.75000000 0 1 1  11.221584,19.094707 A 0.75000000 0.75000000 0 1 1  12.721584 19.094707 z"
       id="path606"
       style="fill:#ffff00;fill-opacity:0.24705882;fill-rule:evenodd;stroke:#000000;stroke-width:1.8750000;stroke-linecap:butt;stroke-linejoin:miter;stroke-dasharray:none;stroke-opacity:1.0000000"
       sodipodi:type="arc" /><path
       transform="translate(6.164777,-6.384459)"
       sodipodi:ry="0.75000000"
       sodipodi:rx="0.75000000"
       sodipodi:cy="19.094707"
       sodipodi:cx="11.971584"
       d="M 12.721584 19.094707 A 0.75000000 0.75000000 0 1 1  11.221584,19.094707 A 0.75000000 0.75000000 0 1 1  12.721584 19.094707 z"
       id="path608"
       style="fill:#ffff00;fill-opacity:0.24705882;fill-rule:evenodd;stroke:#000000;stroke-width:1.8750000;stroke-linecap:butt;stroke-linejoin:miter;stroke-dasharray:none;stroke-opacity:1.0000000"
       sodipodi:type="arc" /><path
       transform="translate(13.66478,-6.384459)"
       sodipodi:ry="0.75000000"
       sodipodi:rx="0.75000000"
       sodipodi:cy="19.094707"
       sodipodi:cx="11.971584"
       d="M 12.721584 19.094707 A 0.75000000 0.75000000 0 1 1  11.221584,19.094707 A 0.75000000 0.75000000 0 1 1  12.721584 19.094707 z"
       id="path610"
       style="fill:#ffff00;fill-opacity:0.24705882;fill-rule:evenodd;stroke:#000000;stroke-width:1.8750000;stroke-linecap:butt;stroke-linejoin:miter;stroke-dasharray:none;stroke-opacity:1.0000000"
       sodipodi:type="arc" /><path
       transform="translate(21.16478,-6.384459)"
       sodipodi:ry="0.75000000"
       sodipodi:rx="0.75000000"
       sodipodi:cy="19.094707"
       sodipodi:cx="11.971584"
       d="M 12.721584 19.094707 A 0.75000000 0.75000000 0 1 1  11.221584,19.094707 A 0.75000000 0.75000000 0 1 1  12.721584 19.094707 z"
       id="path612"
       style="fill:#ffff00;fill-opacity:0.24705882;fill-rule:evenodd;stroke:#000000;stroke-width:1.8750000;stroke-linecap:butt;stroke-linejoin:miter;stroke-dasharray:none;stroke-opacity:1.0000000"
       sodipodi:type="arc" /><path
       transform="translate(6.164777,1.115541)"
       sodipodi:ry="0.75000000"
       sodipodi:rx="0.75000000"
       sodipodi:cy="19.094707"
       sodipodi:cx="11.971584"
       d="M 12.721584 19.094707 A 0.75000000 0.75000000 0 1 1  11.221584,19.094707 A 0.75000000 0.75000000 0 1 1  12.721584 19.094707 z"
       id="path624"
       style="fill:#ffff00;fill-opacity:0.24705882;fill-rule:evenodd;stroke:#000000;stroke-width:1.8750000;stroke-linecap:butt;stroke-linejoin:miter;stroke-dasharray:none;stroke-opacity:1.0000000"
       sodipodi:type="arc" /><path
       transform="translate(13.66478,1.115541)"
       sodipodi:ry="0.75000000"
       sodipodi:rx="0.75000000"
       sodipodi:cy="19.094707"
       sodipodi:cx="11.971584"
       d="M 12.721584 19.094707 A 0.75000000 0.75000000 0 1 1  11.221584,19.094707 A 0.75000000 0.75000000 0 1 1  12.721584 19.094707 z"
       id="path626"
       style="fill:#ffff00;fill-opacity:0.24705882;fill-rule:evenodd;stroke:#000000;stroke-width:1.8750000;stroke-linecap:butt;stroke-linejoin:miter;stroke-dasharray:none;stroke-opacity:1.0000000"
       sodipodi:type="arc" /><path
       transform="translate(21.16478,1.115541)"
       sodipodi:ry="0.75000000"
       sodipodi:rx="0.75000000"
       sodipodi:cy="19.094707"
       sodipodi:cx="11.971584"
       d="M 12.721584 19.094707 A 0.75000000 0.75000000 0 1 1  11.221584,19.094707 A 0.75000000 0.75000000 0 1 1  12.721584 19.094707 z"
       id="path628"
       style="fill:#ffff00;fill-opacity:0.24705882;fill-rule:evenodd;stroke:#000000;stroke-width:1.8750000;stroke-linecap:butt;stroke-linejoin:miter;stroke-dasharray:none;stroke-opacity:1.0000000"
       sodipodi:type="arc" /><g
       id="g2777"
       style="fill:#ffff00;fill-opacity:0.24705882"><path
         sodipodi:type="arc"
         style="fill:#ffff00;fill-opacity:0.24705882;fill-rule:evenodd;stroke:#000000;stroke-width:1.8750000;stroke-linecap:butt;stroke-linejoin:miter;stroke-dasharray:none;stroke-opacity:1.0000000"
         id="path622"
         d="M 12.721584 19.094707 A 0.75000000 0.75000000 0 1 1  11.221584,19.094707 A 0.75000000 0.75000000 0 1 1  12.721584 19.094707 z"
         sodipodi:cx="11.971584"
         sodipodi:cy="19.094707"
         sodipodi:rx="0.75000000"
         sodipodi:ry="0.75000000"
         transform="translate(-1.335223,1.115541)" /></g></g></svg>