<?xml version="1.0" encoding="UTF-8" standalone="no"?>
<!-- Created with Inkscape (http://www.inkscape.org/) -->
<svg
   xmlns:dc="http://purl.org/dc/elements/1.1/"
   xmlns:cc="http://web.resource.org/cc/"
   xmlns:rdf="http://www.w3.org/1999/02/22-rdf-syntax-ns#"
   xmlns:svg="http://www.w3.org/2000/svg"
   xmlns="http://www.w3.org/2000/svg"
   xmlns:sodipodi="http://inkscape.sourceforge.net/DTD/sodipodi-0.dtd"
   xmlns:inkscape="http://www.inkscape.org/namespaces/inkscape"
   width="30pt"
   height="30pt"
   id="svg2"
   sodipodi:version="0.32"
   inkscape:version="0.43"
   version="1.0"
   sodipodi:docbase="/home/nix/source/QCADesigner.HEAD/pixmaps"
   sodipodi:docname="show_potential.svg">
  <defs
     id="defs4" />
  <sodipodi:namedview
     id="base"
     pagecolor="#ffffff"
     bordercolor="#666666"
     borderopacity="1.0"
     inkscape:pageopacity="0.0"
     inkscape:pageshadow="2"
     inkscape:zoom="1"
     inkscape:cx="21.5"
     inkscape:cy="8.5"
     inkscape:document-units="px"
     inkscape:current-layer="layer1"
     inkscape:window-width="1024"
     inkscape:window-height="718"
     inkscape:window-x="0"
     inkscape:window-y="0" />
  <metadata
     id="metadata7">
    <rdf:RDF>
      <cc:Work
         rdf:about="">
        <dc:format>image/svg+xml</dc:format>
        <dc:type
           rdf:resource="http://purl.org/dc/dcmitype/StillImage" />
      </cc:Work>
    </rdf:RDF>
  </metadata>
  <g
     inkscape:label="Layer 1"
     inkscape:groupmode="layer"
     id="layer1">
    <g
       id="g4902"
       transform="translate(-0.737707,-0.989052)">
      <rect
         y="9.0260983"
         x="16.703749"
         height="21.425907"
         width="5.5679164"
         id="rect1307"
         style="opacity:1;fill:#ff8080;fill-opacity:0.50196078;fill-rule:evenodd;stroke:#ff0000;stroke-width:1;stroke-linecap:round;stroke-linejoin:round;stroke-miterlimit:4;stroke-dasharray:none;stroke-dashoffset:0;stroke-opacity:1" />
      <path
         id="path3101"
         d="M 19.487707,30.531627 C 18.541979,33.825531 17.170259,35.898305 15.644745,35.898305 C 12.793794,35.898306 10.479979,28.65896 10.479979,19.739052 C 10.47998,10.819144 12.793794,3.5797981 15.644745,3.5797981 C 17.170258,3.579798 18.541979,5.6525725 19.487706,8.9464761"
         style="opacity:1;fill:none;fill-opacity:0.50196078;fill-rule:evenodd;stroke:#000000;stroke-width:1;stroke-linecap:round;stroke-linejoin:miter;stroke-miterlimit:4;stroke-dasharray:none;stroke-dashoffset:0;stroke-opacity:1" />
      <path
         id="path3103"
         d="M 19.487707,30.611292 C 18.872342,31.762816 18.151431,32.425444 17.380955,32.425444 C 15.124468,32.425443 13.293117,26.741941 13.293117,19.739052 C 13.293117,12.736164 15.124469,7.0526604 17.380955,7.0526604 C 18.146173,7.0526604 18.862499,7.7062739 19.475093,8.8433032"
         style="opacity:1;fill:none;fill-opacity:0.50196078;fill-rule:evenodd;stroke:#000000;stroke-width:1;stroke-linecap:round;stroke-linejoin:miter;stroke-miterlimit:4;stroke-dasharray:none;stroke-dashoffset:0;stroke-opacity:1" />
      <path
         id="path3133"
         d="M 19.487707,30.611292 C 20.103072,31.762816 20.823983,32.425444 21.594459,32.425444 C 23.850946,32.425443 25.682297,26.741941 25.682297,19.739052 C 25.682297,12.736164 23.850945,7.0526604 21.594459,7.0526604 C 20.829241,7.0526604 20.112915,7.7062739 19.500321,8.8433032"
         style="opacity:1;fill:none;fill-opacity:0.50196078;fill-rule:evenodd;stroke:#000000;stroke-width:1;stroke-linecap:round;stroke-linejoin:miter;stroke-miterlimit:4;stroke-dasharray:none;stroke-dashoffset:0;stroke-opacity:1" />
      <path
         id="path3152"
         d="M 19.487707,30.531627 C 20.433435,33.825531 21.805155,35.898305 23.330669,35.898305 C 26.18162,35.898306 28.495435,28.65896 28.495435,19.739052 C 28.495434,10.819144 26.18162,3.5797981 23.330669,3.5797981 C 21.805156,3.579798 20.433435,5.6525725 19.487708,8.9464761"
         style="opacity:1;fill:none;fill-opacity:0.50196078;fill-rule:evenodd;stroke:#000000;stroke-width:1;stroke-linecap:round;stroke-linejoin:miter;stroke-miterlimit:4;stroke-dasharray:none;stroke-dashoffset:0;stroke-opacity:1" />
    </g>
  </g>
</svg>
