<?xml version="1.0" encoding="UTF-8" standalone="no"?>
<!DOCTYPE svg PUBLIC "-//W3C//DTD SVG 20010904//EN"
"http://www.w3.org/TR/2001/REC-SVG-20010904/DTD/svg10.dtd">
<!-- Created with Sodipodi ("http://www.sodipodi.com/") -->
<svg
   xmlns="http://www.w3.org/2000/svg"
   xmlns:sodipodi="http://sodipodi.sourceforge.net/DTD/sodipodi-0.dtd"
   xmlns:xlink="http://www.w3.org/1999/xlink"
   id="svg602"
   sodipodi:version="0.34"
   width="30pt"
   height="30pt"
   xml:space="preserve"
   sodipodi:docname="substrate.svg"><defs
   id="defs604" /><sodipodi:namedview
   id="base" /><path
   style="font-size:12;fill:#ffff00;fill-rule:evenodd;stroke:none;stroke-linecap:round;stroke-linejoin:round;fill-opacity:0.25;"
   d="M 7.329541 0.119335 L 7.329541 33.83524 L 41.28975 33.83524 L 41.28975 0.119335 L 7.329541 0.119335 z "
   id="path673"
   transform="translate(-2.44318,6.840909)" /><path
   style="font-size:12;fill:none;fill-rule:evenodd;stroke:#000000;stroke-linecap:round;stroke-linejoin:round;"
   d="M 38.84657 6.960244 L 4.886361 6.960244 L 4.886361 40.67614 "
   id="path672"
   sodipodi:nodetypes="ccc" /><path
   sodipodi:type="arc"
   style="fill-rule:evenodd;stroke:#000000;fill:#000000;fill-opacity:1;stroke-opacity:1;stroke-width:1.875;stroke-linejoin:miter;stroke-linecap:butt;stroke-dasharray:none;"
   id="path606"
   d="M 12.72158 19.09471 A 0.75 0.75 0 1 0 11.22158 19.09471 A 0.75 0.75 0 1 0  12.72158 19.09471 z"
   sodipodi:cx="11.9715843"
   sodipodi:cy="19.0947075"
   sodipodi:rx="0.75"
   sodipodi:ry="0.75"
   transform="translate(-1.335223,-6.384459)" /><path
   sodipodi:type="arc"
   style="fill-rule:evenodd;stroke:#000000;fill:#000000;fill-opacity:1;stroke-opacity:1;stroke-width:1.875;stroke-linejoin:miter;stroke-linecap:butt;stroke-dasharray:none;"
   id="path608"
   d="M 12.72158 19.09471 A 0.75 0.75 0 1 0 11.22158 19.09471 A 0.75 0.75 0 1 0  12.72158 19.09471 z"
   sodipodi:cx="11.9715843"
   sodipodi:cy="19.0947075"
   sodipodi:rx="0.75"
   sodipodi:ry="0.75"
   transform="translate(6.164777,-6.384459)" /><path
   sodipodi:type="arc"
   style="fill-rule:evenodd;stroke:#000000;fill:#000000;fill-opacity:1;stroke-opacity:1;stroke-width:1.875;stroke-linejoin:miter;stroke-linecap:butt;stroke-dasharray:none;"
   id="path610"
   d="M 12.72158 19.09471 A 0.75 0.75 0 1 0 11.22158 19.09471 A 0.75 0.75 0 1 0  12.72158 19.09471 z"
   sodipodi:cx="11.9715843"
   sodipodi:cy="19.0947075"
   sodipodi:rx="0.75"
   sodipodi:ry="0.75"
   transform="translate(13.66478,-6.384459)" /><path
   sodipodi:type="arc"
   style="fill-rule:evenodd;stroke:#000000;fill:#000000;fill-opacity:1;stroke-opacity:1;stroke-width:1.875;stroke-linejoin:miter;stroke-linecap:butt;stroke-dasharray:none;"
   id="path612"
   d="M 12.72158 19.09471 A 0.75 0.75 0 1 0 11.22158 19.09471 A 0.75 0.75 0 1 0  12.72158 19.09471 z"
   sodipodi:cx="11.9715843"
   sodipodi:cy="19.0947075"
   sodipodi:rx="0.75"
   sodipodi:ry="0.75"
   transform="translate(21.16478,-6.384459)" /><path
   sodipodi:type="arc"
   style="fill-rule:evenodd;stroke:#000000;fill:#000000;fill-opacity:1;stroke-opacity:1;stroke-width:1.875;stroke-linejoin:miter;stroke-linecap:butt;stroke-dasharray:none;"
   id="path622"
   d="M 12.72158 19.09471 A 0.75 0.75 0 1 0 11.22158 19.09471 A 0.75 0.75 0 1 0  12.72158 19.09471 z"
   sodipodi:cx="11.9715843"
   sodipodi:cy="19.0947075"
   sodipodi:rx="0.75"
   sodipodi:ry="0.75"
   transform="translate(-1.335223,1.115541)" /><path
   sodipodi:type="arc"
   style="fill-rule:evenodd;stroke:#000000;fill:#000000;fill-opacity:1;stroke-opacity:1;stroke-width:1.875;stroke-linejoin:miter;stroke-linecap:butt;stroke-dasharray:none;"
   id="path624"
   d="M 12.72158 19.09471 A 0.75 0.75 0 1 0 11.22158 19.09471 A 0.75 0.75 0 1 0  12.72158 19.09471 z"
   sodipodi:cx="11.9715843"
   sodipodi:cy="19.0947075"
   sodipodi:rx="0.75"
   sodipodi:ry="0.75"
   transform="translate(6.164777,1.115541)" /><path
   sodipodi:type="arc"
   style="fill-rule:evenodd;stroke:#000000;fill:#000000;fill-opacity:1;stroke-opacity:1;stroke-width:1.875;stroke-linejoin:miter;stroke-linecap:butt;stroke-dasharray:none;"
   id="path626"
   d="M 12.72158 19.09471 A 0.75 0.75 0 1 0 11.22158 19.09471 A 0.75 0.75 0 1 0  12.72158 19.09471 z"
   sodipodi:cx="11.9715843"
   sodipodi:cy="19.0947075"
   sodipodi:rx="0.75"
   sodipodi:ry="0.75"
   transform="translate(13.66478,1.115541)" /><path
   sodipodi:type="arc"
   style="fill-rule:evenodd;stroke:#000000;fill:#000000;fill-opacity:1;stroke-opacity:1;stroke-width:1.875;stroke-linejoin:miter;stroke-linecap:butt;stroke-dasharray:none;"
   id="path628"
   d="M 12.72158 19.09471 A 0.75 0.75 0 1 0 11.22158 19.09471 A 0.75 0.75 0 1 0  12.72158 19.09471 z"
   sodipodi:cx="11.9715843"
   sodipodi:cy="19.0947075"
   sodipodi:rx="0.75"
   sodipodi:ry="0.75"
   transform="translate(21.16478,1.115541)" /><path
   sodipodi:type="arc"
   style="fill-rule:evenodd;stroke:#000000;fill:#000000;fill-opacity:1;stroke-opacity:1;stroke-width:1.875;stroke-linejoin:miter;stroke-linecap:butt;stroke-dasharray:none;"
   id="path638"
   d="M 12.72158 19.09471 A 0.75 0.75 0 1 0 11.22158 19.09471 A 0.75 0.75 0 1 0  12.72158 19.09471 z"
   sodipodi:cx="11.9715843"
   sodipodi:cy="19.0947075"
   sodipodi:rx="0.75"
   sodipodi:ry="0.75"
   transform="translate(-1.335223,8.615541)" /><path
   sodipodi:type="arc"
   style="fill-rule:evenodd;stroke:#000000;fill:#000000;fill-opacity:1;stroke-opacity:1;stroke-width:1.875;stroke-linejoin:miter;stroke-linecap:butt;stroke-dasharray:none;"
   id="path640"
   d="M 12.72158 19.09471 A 0.75 0.75 0 1 0 11.22158 19.09471 A 0.75 0.75 0 1 0  12.72158 19.09471 z"
   sodipodi:cx="11.9715843"
   sodipodi:cy="19.0947075"
   sodipodi:rx="0.75"
   sodipodi:ry="0.75"
   transform="translate(6.164777,8.615541)" /><path
   sodipodi:type="arc"
   style="fill-rule:evenodd;stroke:#000000;fill:#000000;fill-opacity:1;stroke-opacity:1;stroke-width:1.875;stroke-linejoin:miter;stroke-linecap:butt;stroke-dasharray:none;"
   id="path642"
   d="M 12.72158 19.09471 A 0.75 0.75 0 1 0 11.22158 19.09471 A 0.75 0.75 0 1 0  12.72158 19.09471 z"
   sodipodi:cx="11.9715843"
   sodipodi:cy="19.0947075"
   sodipodi:rx="0.75"
   sodipodi:ry="0.75"
   transform="translate(13.66478,8.615541)" /><path
   sodipodi:type="arc"
   style="fill-rule:evenodd;stroke:#000000;fill:#000000;fill-opacity:1;stroke-opacity:1;stroke-width:1.875;stroke-linejoin:miter;stroke-linecap:butt;stroke-dasharray:none;"
   id="path644"
   d="M 12.72158 19.09471 A 0.75 0.75 0 1 0 11.22158 19.09471 A 0.75 0.75 0 1 0  12.72158 19.09471 z"
   sodipodi:cx="11.9715843"
   sodipodi:cy="19.0947075"
   sodipodi:rx="0.75"
   sodipodi:ry="0.75"
   transform="translate(21.16478,8.615541)" /><path
   sodipodi:type="arc"
   style="fill-rule:evenodd;stroke:#000000;fill:#000000;fill-opacity:1;stroke-opacity:1;stroke-width:1.875;stroke-linejoin:miter;stroke-linecap:butt;stroke-dasharray:none;"
   id="path654"
   d="M 12.72158 19.09471 A 0.75 0.75 0 1 0 11.22158 19.09471 A 0.75 0.75 0 1 0  12.72158 19.09471 z"
   sodipodi:cx="11.9715843"
   sodipodi:cy="19.0947075"
   sodipodi:rx="0.75"
   sodipodi:ry="0.75"
   transform="translate(-1.335223,16.11554)" /><path
   sodipodi:type="arc"
   style="fill-rule:evenodd;stroke:#000000;fill:#000000;fill-opacity:1;stroke-opacity:1;stroke-width:1.875;stroke-linejoin:miter;stroke-linecap:butt;stroke-dasharray:none;"
   id="path656"
   d="M 12.72158 19.09471 A 0.75 0.75 0 1 0 11.22158 19.09471 A 0.75 0.75 0 1 0  12.72158 19.09471 z"
   sodipodi:cx="11.9715843"
   sodipodi:cy="19.0947075"
   sodipodi:rx="0.75"
   sodipodi:ry="0.75"
   transform="translate(6.164777,16.11554)" /><path
   sodipodi:type="arc"
   style="fill-rule:evenodd;stroke:#000000;fill:#000000;fill-opacity:1;stroke-opacity:1;stroke-width:1.875;stroke-linejoin:miter;stroke-linecap:butt;stroke-dasharray:none;"
   id="path658"
   d="M 12.72158 19.09471 A 0.75 0.75 0 1 0 11.22158 19.09471 A 0.75 0.75 0 1 0  12.72158 19.09471 z"
   sodipodi:cx="11.9715843"
   sodipodi:cy="19.0947075"
   sodipodi:rx="0.75"
   sodipodi:ry="0.75"
   transform="translate(13.66478,16.11554)" /><path
   sodipodi:type="arc"
   style="fill-rule:evenodd;stroke:#000000;fill:#000000;fill-opacity:1;stroke-opacity:1;stroke-width:1.875;stroke-linejoin:miter;stroke-linecap:butt;stroke-dasharray:none;"
   id="path660"
   d="M 12.72158 19.09471 A 0.75 0.75 0 1 0 11.22158 19.09471 A 0.75 0.75 0 1 0  12.72158 19.09471 z"
   sodipodi:cx="11.9715843"
   sodipodi:cy="19.0947075"
   sodipodi:rx="0.75"
   sodipodi:ry="0.75"
   transform="translate(21.16478,16.11554)" /></svg>
