<?xml version="1.0" encoding="UTF-8" standalone="no"?>
<!-- Created with Sodipodi ("http://www.sodipodi.com/") -->
<svg
   xmlns:dc="http://purl.org/dc/elements/1.1/"
   xmlns:cc="http://web.resource.org/cc/"
   xmlns:rdf="http://www.w3.org/1999/02/22-rdf-syntax-ns#"
   xmlns:svg="http://www.w3.org/2000/svg"
   xmlns="http://www.w3.org/2000/svg"
   xmlns:sodipodi="http://inkscape.sourceforge.net/DTD/sodipodi-0.dtd"
   xmlns:inkscape="http://www.inkscape.org/namespaces/inkscape"
   id="svg1244"
   sodipodi:version="0.32"
   width="16pt"
   height="16pt"
   xml:space="preserve"
   sodipodi:docbase="/home/nix/source/QCADesigner.HEAD/pixmaps"
   sodipodi:docname="vector_table_simulation.svg"
   inkscape:version="0.43"><metadata
     id="metadata1387"><rdf:RDF><cc:Work
         rdf:about=""><dc:format>image/svg+xml</dc:format><dc:type
           rdf:resource="http://purl.org/dc/dcmitype/StillImage" /></cc:Work></rdf:RDF></metadata><defs
     id="defs1246" /><sodipodi:namedview
     id="base"
     inkscape:zoom="4"
     inkscape:cx="13"
     inkscape:cy="4"
     inkscape:window-width="1024"
     inkscape:window-height="718"
     inkscape:window-x="0"
     inkscape:window-y="0"
     inkscape:current-layer="svg1244" /><g
     id="g4957"
     transform="translate(18.78401,-0.801611)" /><g
     id="g4961"
     transform="translate(18.78401,14.27439)" /><g
     id="g6963"
     transform="matrix(0.921553,0.388253,-0.388253,0.921553,4.667006,-3.09806)"><path
       sodipodi:nodetypes="ccccccccccccsc"
       id="path6958"
       d="M 11.955921,3.2377058 L 12.250851,2.2818205 C 15.593423,3.2560015 18.037999,6.3442554 18.037999,10 L 18.037998,10 C 18.037999,13.92715 15.216975,17.199419 11.492171,17.899562 L 11.438049,17.899563 L 11.438049,19.135834 L 11.438049,19.135834 L 8.5619516,17.538 L 11.438049,15.940167 L 11.438049,16.881721 L 11.480843,16.881721 C 14.655545,16.201023 17.038,13.377047 17.038,10 C 17.038,6.7936318 14.890281,4.0858412 11.955921,3.2377058 z "
       style="fill:#800080;fill-opacity:1;fill-rule:evenodd;stroke:#400040;stroke-width:0.5000006;stroke-linecap:round;stroke-linejoin:round;stroke-miterlimit:4;stroke-dashoffset:0;stroke-opacity:1" /><path
       sodipodi:nodetypes="ccsccccccccsc"
       id="path6961"
       d="M 8.0440791,16.762295 L 7.7491487,17.71818 C 4.4065776,16.744 1.962001,13.655745 1.962001,10 C 1.962001,6.0728501 4.7830254,2.800581 8.5078288,2.100438 L 8.5619516,2.1004381 L 8.5619516,0.86416721 L 11.438049,2.4620011 L 8.5619516,4.059833 L 8.5619516,4.059833 L 8.5619516,3.118278 L 8.5191574,3.118278 C 5.3444553,3.798977 2.9620003,6.6229535 2.962,10 C 2.9620001,13.206368 5.109719,15.914159 8.0440791,16.762295 z "
       style="fill:#800080;fill-opacity:1;fill-rule:evenodd;stroke:#400040;stroke-width:0.49999992;stroke-linecap:round;stroke-linejoin:round;stroke-miterlimit:4;stroke-dashoffset:0;stroke-opacity:1;stroke-dasharray:none" /></g><g
     id="g9613"
     transform="translate(0.255577,0.301115)"><rect
       y="4.6988845"
       x="7.4944239"
       height="4.5"
       width="4.5"
       id="rect8713"
       style="opacity:1;fill:#ffffff;fill-opacity:1;fill-rule:evenodd;stroke:#000000;stroke-width:0.5;stroke-linecap:round;stroke-linejoin:round;stroke-miterlimit:4;stroke-dasharray:none;stroke-dashoffset:0;stroke-opacity:1" /><rect
       y="10.198885"
       x="7.4944239"
       height="4.5"
       width="4.5"
       id="rect9588"
       style="opacity:1;fill:#ffffff;fill-opacity:1;fill-rule:evenodd;stroke:#000000;stroke-width:0.5;stroke-linecap:round;stroke-linejoin:round;stroke-miterlimit:4;stroke-dasharray:none;stroke-dashoffset:0;stroke-opacity:1" /><path
       sodipodi:nodetypes="ccccc"
       id="rect9602"
       d="M 9.501103,12.986417 C 10.301022,12.413784 10.866683,11.763065 11.432344,10.917131 C 10.674489,11.964324 9.9556763,13.987595 9.7053823,13.980623 C 9.5331741,13.925544 8.7362758,13.011517 8.0565069,12.605049 C 8.5380389,12.888344 9.0195709,13.015467 9.501103,12.986417 z "
       style="fill:#000000;fill-opacity:1;fill-rule:evenodd;stroke:#000000;stroke-width:0.5;stroke-linecap:round;stroke-linejoin:round;stroke-miterlimit:4;stroke-dasharray:none;stroke-dashoffset:0;stroke-opacity:1" /></g></svg>